# xmcd CD database file
#
# Track frame offsets:
#	150
#	20112
#	42642
#	63200
#	86300
#	109240
#	128587
#	146330
#	164535
#	186602
#	199372
#
# Disc length: 2954 seconds
#
# Revision: 1
# Processed by: cddbd v1.4PL0 Copyright (c) Steve Scherf et al.
# Submitted via: CDex 1.50
#
DISCID=a10b880b
DTITLE=Jim Scott - Sailing with the Moon
DYEAR=1997
DGENRE=New Age
TTITLE0=Laughing at the Sun Sailing with the Moon
TTITLE1=Nothing We Haven't Seen
TTITLE2=Plant More Than You Harvest
TTITLE3=Pioneers
TTITLE4=Tree of Life
TTITLE5=Rainforest
TTITLE6=With Every Story Told
TTITLE7=The Braided Rug
TTITLE8=The Oneness of Everything
TTITLE9=Winter to Spring
TTITLE10=May Your Life be as a Song
EXTD=YEAR: 1997
EXTT0=
EXTT1=
EXTT2=
EXTT3=
EXTT4=
EXTT5=
EXTT6=
EXTT7=
EXTT8=
EXTT9=
EXTT10=
PLAYORDER=
